<svg width="215" height="208" viewBox="0 0 215 208" fill="none" xmlns="http://www.w3.org/2000/svg">
<g id="Group 101">
<g id="Layer_x5F_1_1_">
<path id="Vector" d="M214.196 118.914C209.377 128.204 202.99 136.565 195.325 143.649C179.88 157.99 159.384 166.932 136.681 167.629C111.83 168.326 89.0112 158.919 72.2309 143.126C55.5086 127.275 44.7669 105.037 44.012 80.1275C43.3733 57.4828 51.1538 36.4638 64.5084 20.2641C71.1857 12.2514 79.1404 5.34183 88.1983 0C67.0632 4.58701 48.3668 15.5029 34.0832 30.5994C15.6191 50.1087 4.64507 76.7017 5.51602 105.733C6.38697 134.707 18.8706 160.603 38.438 179.067C58.0053 197.474 84.5984 208.506 113.572 207.635C142.546 206.764 168.442 194.28 186.906 174.713C201.074 159.558 210.886 140.281 214.196 118.914Z" fill="#EAEAEA"/>
</g>
<g id="Group">
<path id="Vector_2" d="M85.0048 62.5924C87.5596 62.5924 90.0564 63.1149 92.437 64.1601C94.8756 65.2052 96.8498 66.831 98.4175 69.0374C99.9852 71.2438 100.798 74.205 100.798 77.863V100.101H87.2693V80.1275C87.2693 77.5147 86.6306 75.5405 85.4113 74.2631C84.1919 72.9276 82.5662 72.2889 80.534 72.2889C79.1985 72.2889 77.9792 72.6373 76.7598 73.3341C75.5986 74.0309 74.6696 75.0179 73.9147 76.2373C73.218 77.5147 72.8115 78.9082 72.8115 80.592V100.159H59.3408V63.7536H72.8115V69.0955C73.1599 68.1084 73.9147 67.1213 75.076 66.1342C76.2373 65.1471 77.6308 64.3343 79.3727 63.6375C81.1146 62.9407 82.9726 62.5924 85.0048 62.5924Z" fill="#015092"/>
</g>
<g id="Group_2">
<g id="Group_3">
<path id="Vector_3" d="M20.4964 148.758C16.49 148.758 12.9481 147.945 9.87078 146.32C6.79342 144.694 4.35475 142.429 2.61285 139.526C0.870951 136.623 0 133.314 0 129.597C0 125.881 0.870951 122.572 2.61285 119.611C4.35475 116.707 6.79342 114.385 9.87078 112.701C12.9481 111.017 16.49 110.146 20.4964 110.146C24.5028 110.146 27.9866 111.017 31.0639 112.701C34.0832 114.385 36.4638 116.707 38.2057 119.611C39.9476 122.514 40.7605 125.823 40.7605 129.597C40.7605 133.314 39.8895 136.623 38.2057 139.526C36.4638 142.429 34.0832 144.694 31.0639 146.32C27.9866 147.945 24.5028 148.758 20.4964 148.758ZM20.4964 137.668C22.006 137.668 23.3415 137.32 24.5028 136.623C25.606 135.926 26.4769 134.997 27.1156 133.72C27.7543 132.501 28.0446 131.049 28.0446 129.481C28.0446 127.856 27.7543 126.462 27.1156 125.243C26.4769 124.023 25.606 123.036 24.5028 122.34C23.3995 121.643 22.0641 121.294 20.4964 121.294C18.9867 121.294 17.5932 121.643 16.49 122.34C15.3287 123.036 14.4578 124.023 13.8191 125.243C13.1804 126.462 12.8901 127.914 12.8901 129.481C12.8901 131.049 13.1804 132.443 13.8191 133.72C14.4578 134.939 15.3287 135.926 16.49 136.623C17.5932 137.32 18.9287 137.668 20.4964 137.668Z" fill="#015092"/>
<path id="Vector_4" d="M70.7212 147.713V141.791C70.4309 142.371 69.7922 143.242 68.689 144.346C67.5858 145.449 66.1923 146.494 64.3923 147.365C62.5924 148.294 60.5601 148.7 58.1795 148.7C54.6377 148.7 51.5023 147.829 48.8894 146.087C46.2185 144.346 44.1282 142.023 42.6766 139.12C41.225 136.217 40.4702 132.965 40.4702 129.423C40.4702 125.881 41.225 122.63 42.6766 119.727C44.1282 116.824 46.2185 114.501 48.8894 112.759C51.5603 111.017 54.6377 110.146 58.1795 110.146C60.444 110.146 62.4762 110.495 64.1601 111.249C65.902 111.946 67.2374 112.817 68.3406 113.804C69.3858 114.791 70.1406 115.72 70.547 116.533V111.191H83.9597V147.597H70.7212V147.713ZM61.5472 167.164C58.9924 167.164 56.4957 166.932 53.999 166.526C51.5023 166.061 49.1797 165.306 47.0314 164.261C44.883 163.216 43.025 161.707 41.5734 159.848L49.47 151.662C50.1668 152.474 50.9797 153.229 51.9668 154.042C52.9538 154.797 54.1732 155.436 55.6248 155.958C57.0763 156.481 58.8763 156.713 60.9666 156.713C62.9407 156.713 64.6246 156.365 66.0762 155.668C67.5278 154.971 68.631 153.984 69.4438 152.707C70.2567 151.429 70.6632 149.804 70.6632 147.946V147.075H83.9016V148.758C83.9016 152.765 82.9145 156.191 80.8823 158.919C78.9082 161.648 76.1792 163.739 72.8115 165.132C69.56 166.468 65.7858 167.164 61.5472 167.164ZM53.6506 129.481C53.6506 131.165 54.057 132.617 54.8119 133.952C55.5667 135.288 56.6118 136.275 57.8892 137.03C59.1666 137.784 60.6182 138.133 62.1859 138.133C63.8117 138.133 65.2633 137.784 66.4826 137.03C67.7019 136.275 68.689 135.288 69.4438 133.952C70.1406 132.617 70.547 131.165 70.547 129.481C70.547 127.798 70.1987 126.346 69.4438 125.01C68.7471 123.675 67.76 122.63 66.4826 121.933C65.2052 121.236 63.8117 120.83 62.1859 120.83C60.6182 120.83 59.1666 121.178 57.8892 121.933C56.6118 122.688 55.5667 123.733 54.8119 125.01C54.057 126.346 53.6506 127.856 53.6506 129.481Z" fill="#015092"/>
<path id="Vector_5" d="M100.798 147.713H87.269V86.6306H100.798V147.713Z" fill="#015092"/>
</g>
</g>
<path id="Vector_6" d="M163.565 27.9285C161.649 29.4381 159.268 31.8187 158.746 35.1864C158.281 38.1476 159.5 40.0057 160.604 44.4765C161.184 46.9152 161.823 50.399 161.823 54.9279C161.358 54.986 160.894 54.986 160.487 55.0441C160.604 54.1731 160.662 52.7796 160.371 51.1538C160.081 49.2377 159.733 46.9152 157.875 45.2894C157.41 44.883 156.017 43.6637 154.159 43.7217C151.72 43.8378 149.165 46.0443 149.223 48.9474C149.281 51.0377 150.675 52.9538 152.823 53.7086C153.113 51.7925 154.042 50.1668 155.146 49.9926C156.539 49.7603 158.629 51.6764 159.036 55.1021C158.281 55.1021 157.584 55.1602 157.41 55.5086C157.062 56.3795 159.733 59.1666 162.636 59.0504C165.016 58.9343 167.223 56.9602 167.978 54.1151C167.513 54.1731 167.049 54.1731 166.526 54.2312C168.036 50.6893 170.126 48.6571 171.345 49.0055C171.926 49.1797 172.507 49.9345 172.797 50.6313C173.145 51.4441 173.087 52.1409 173.029 52.4893C173.378 52.3732 175.932 51.328 176.745 48.599C176.861 48.3087 177.79 45.0572 175.584 43.1411C174.19 41.9218 172.274 41.9218 170.881 42.3863C168.5 43.1991 165.249 51.7925 165.133 54.6376C164.668 54.6957 164.262 54.7538 163.797 54.8118C164.145 50.5732 164.9 47.2636 165.539 44.9991C167.165 39.1347 168.965 36.5219 167.978 33.1542C167.223 30.5994 165.132 28.9156 163.565 27.9285Z" fill="#FFB94A"/>
<g id="Group_4">
<path id="Vector_7" d="M131.165 101.204V95.282C130.875 95.8627 130.236 96.7336 129.133 97.8368C128.03 98.94 126.636 99.9851 124.836 100.856C123.036 101.785 121.004 102.192 118.623 102.192C115.082 102.192 111.946 101.321 109.333 99.5787C106.662 97.8368 104.572 95.5143 103.12 92.6111C101.669 89.7079 100.914 86.4564 100.914 82.9145C100.914 79.3726 101.669 76.1211 103.12 73.2179C104.572 70.3148 106.662 67.9922 109.333 66.2503C112.004 64.5084 115.082 63.6375 118.623 63.6375C120.888 63.6375 122.92 63.9858 124.604 64.7407C126.346 65.4374 127.681 66.3084 128.784 67.2955C129.83 68.2825 130.584 69.2116 130.991 70.0244V64.6826H144.404V101.088H131.165V101.204ZM114.094 82.9726C114.094 84.6564 114.501 86.108 115.256 87.4435C116.011 88.7789 117.056 89.766 118.333 90.5208C119.61 91.2756 121.062 91.624 122.63 91.624C124.256 91.624 125.707 91.2756 126.926 90.5208C128.146 89.766 129.133 88.7789 129.888 87.4435C130.584 86.108 130.991 84.6564 130.991 82.9726C130.991 81.2887 130.643 79.8372 129.888 78.5017C129.191 77.1662 128.204 76.1211 126.926 75.4243C125.649 74.7276 124.256 74.3211 122.63 74.3211C121.062 74.3211 119.61 74.6695 118.333 75.4243C117.056 76.1792 116.011 77.2243 115.256 78.5017C114.501 79.8372 114.094 81.3468 114.094 82.9726Z" fill="#00BF63"/>
<path id="Vector_8" d="M163.971 63.6955C166.351 63.6955 168.558 63.8697 170.532 64.2762C172.506 64.6826 174.19 65.1471 175.525 65.6116C176.861 66.1342 177.732 66.5406 178.138 66.831L173.725 74.7856C173.145 74.3792 172.1 73.8566 170.59 73.1599C169.08 72.5212 167.396 72.1728 165.48 72.1728C164.087 72.1728 162.867 72.405 161.88 72.8115C160.893 73.2179 160.429 73.9147 160.429 74.8437C160.429 75.7727 160.951 76.4695 162.055 77.0501C163.158 77.5727 164.667 78.0952 166.758 78.5017C168.558 78.8501 170.358 79.4307 172.158 80.1855C174.016 80.9404 175.525 82.1016 176.745 83.5532C177.964 85.0629 178.603 87.037 178.603 89.5337C178.603 92.0885 178.08 94.1788 176.977 95.8626C175.874 97.5465 174.422 98.8239 172.622 99.6948C170.822 100.624 168.848 101.263 166.758 101.611C164.667 101.959 162.635 102.192 160.661 102.192C157.874 102.192 155.435 101.959 153.403 101.437C151.371 100.914 149.687 100.334 148.41 99.6948C147.132 99.0561 146.261 98.5336 145.739 98.1271L150.094 89.2434C150.848 89.8821 152.126 90.6369 153.868 91.4498C155.61 92.2627 157.468 92.6692 159.442 92.6692C161.358 92.6692 162.809 92.3788 163.855 91.7982C164.9 91.2176 165.422 90.5208 165.422 89.5918C165.422 88.837 165.19 88.2563 164.667 87.7918C164.145 87.3273 163.448 86.9789 162.519 86.6306C161.59 86.2822 160.487 85.9919 159.209 85.7596C158.048 85.5274 156.771 85.179 155.435 84.6564C154.1 84.1338 152.822 83.4951 151.661 82.5661C150.5 81.6952 149.513 80.592 148.758 79.2565C148.003 77.9211 147.655 76.2953 147.655 74.4373C147.655 71.9986 148.41 70.0244 149.977 68.3987C151.545 66.7729 153.577 65.6116 156.074 64.7987C158.513 64.102 161.184 63.6955 163.971 63.6955Z" fill="#00BF63"/>
<path id="Vector_9" d="M194.396 64.7407H180.925V101.146H194.396V64.7407Z" fill="#00BF63"/>
</g>
<g id="Group_5">
<path id="Vector_10" d="M144.404 110.204V146.61H130.991V141.268C130.584 142.081 129.83 143.01 128.784 143.997C127.739 144.984 126.346 145.855 124.604 146.552C122.862 147.249 120.888 147.655 118.623 147.655C115.082 147.655 111.946 146.784 109.333 145.042C106.662 143.3 104.572 140.978 103.12 138.075C101.669 135.172 100.914 131.92 100.914 128.378C100.914 124.836 101.669 121.585 103.12 118.682C104.572 115.778 106.662 113.456 109.333 111.714C112.004 109.972 115.082 109.101 118.623 109.101C121.004 109.101 123.036 109.566 124.836 110.437C126.636 111.366 128.03 112.353 129.133 113.456C130.236 114.559 130.875 115.43 131.165 116.011V110.088H144.404V110.204ZM115.256 132.849C116.011 134.185 117.056 135.23 118.333 135.926C119.61 136.681 121.062 137.03 122.63 137.03C124.256 137.03 125.707 136.681 126.926 135.926C128.146 135.172 129.133 134.126 129.888 132.849C130.584 131.514 130.991 130.062 130.991 128.378C130.991 126.694 130.643 125.243 129.888 123.907C129.191 122.572 128.204 121.585 126.926 120.83C125.649 120.075 124.256 119.727 122.63 119.727C121.062 119.727 119.61 120.075 118.333 120.83C117.056 121.585 116.011 122.572 115.256 123.907C114.501 125.243 114.094 126.694 114.094 128.378C114.094 130.062 114.501 131.514 115.256 132.849Z" fill="#6DE29C"/>
<path id="Vector_11" d="M156.016 146.494C153.52 145.681 151.487 144.462 149.92 142.894C148.352 141.326 147.597 139.294 147.597 136.855C147.597 134.939 147.946 133.372 148.7 132.036C149.455 130.701 150.384 129.597 151.604 128.727C152.765 127.856 154.042 127.159 155.378 126.636C156.713 126.114 157.991 125.765 159.152 125.533C160.429 125.243 161.591 124.952 162.461 124.662C163.39 124.314 164.087 123.965 164.61 123.501C165.132 123.036 165.365 122.456 165.365 121.701C165.365 120.772 164.842 120.017 163.797 119.494C162.752 118.914 161.3 118.624 159.384 118.624C157.41 118.624 155.61 119.03 153.81 119.843C152.068 120.656 150.791 121.411 150.036 122.049L145.681 113.166C146.204 112.759 147.075 112.237 148.352 111.598C149.629 110.959 151.313 110.379 153.346 109.856C155.378 109.333 157.816 109.101 160.603 109.101C162.578 109.101 164.61 109.275 166.7 109.682C168.79 110.03 170.765 110.669 172.564 111.598C174.364 112.527 175.816 113.804 176.919 115.43C178.022 117.114 178.545 119.204 178.545 121.759C178.545 124.256 177.906 126.23 176.687 127.739C175.468 129.249 173.9 130.352 172.1 131.107C170.242 131.862 168.442 132.443 166.7 132.791C164.668 133.197 163.1 133.662 161.997 134.243C160.894 134.765 160.371 135.52 160.371 136.449C160.371 137.378 160.836 138.017 161.823 138.481C162.81 138.888 163.971 139.12 165.423 139.12C167.281 139.12 168.965 138.772 170.532 138.133C172.042 137.494 173.087 136.972 173.668 136.507L178.081 144.462C177.674 144.81 176.803 145.217 175.468 145.681C174.132 146.204 172.448 146.61 170.474 147.017C168.5 147.423 166.294 147.597 163.913 147.597C161.184 147.713 158.513 147.307 156.016 146.494Z" fill="#6DE29C"/>
<path id="Vector_12" d="M194.396 110.204H180.925V146.61H194.396V110.204Z" fill="#6DE29C"/>
</g>
<path id="Vector_13" d="M148.294 106.72C174.237 106.72 195.267 106.305 195.267 105.791C195.267 105.278 174.237 104.862 148.294 104.862C122.351 104.862 101.321 105.278 101.321 105.791C101.321 106.305 122.351 106.72 148.294 106.72Z" fill="url(#paint0_linear_510_1732)"/>
</g>
<defs>
<linearGradient id="paint0_linear_510_1732" x1="148.288" y1="106.768" x2="148.288" y2="104.861" gradientUnits="userSpaceOnUse">
<stop offset="0.5209" stop-color="#6DE29C"/>
<stop offset="0.8053" stop-color="#00BF63"/>
</linearGradient>
</defs>
</svg>
